<svg xmlns="http://www.w3.org/2000/svg" width="64" height="64" viewBox="0 0 64 64" role="img" aria-label="Soli-boy">
  <title>Soli-boy</title>
  <rect width="64" height="64" rx="12" fill="#140b22"/>
  <g shape-rendering="crispEdges">
    <rect x="20" y="4" width="8" height="8" fill="#ff2bd6"/>
    <rect x="28" y="4" width="8" height="8" fill="#ff2bd6"/>
    <rect x="36" y="4" width="8" height="8" fill="#ff2bd6"/>
    <rect x="44" y="4" width="8" height="8" fill="#ff53c9"/>
    <rect x="12" y="12" width="8" height="8" fill="#ff2bd6"/>
    <rect x="20" y="12" width="8" height="8" fill="#ff2bd6"/>
    <rect x="12" y="20" width="8" height="8" fill="#ff2bd6"/>
    <rect x="20" y="20" width="8" height="8" fill="#ff2bd6"/>
    <rect x="20" y="28" width="8" height="8" fill="#ff53c9"/>
    <rect x="28" y="28" width="8" height="8" fill="#ff53c9"/>
    <rect x="36" y="28" width="8" height="8" fill="#26c8ec"/>
    <rect x="36" y="36" width="8" height="8" fill="#26c8ec"/>
    <rect x="44" y="36" width="8" height="8" fill="#00e5ff"/>
    <rect x="36" y="44" width="8" height="8" fill="#00e5ff"/>
    <rect x="44" y="44" width="8" height="8" fill="#00e5ff"/>
    <rect x="12" y="52" width="8" height="8" fill="#26c8ec"/>
    <rect x="20" y="52" width="8" height="8" fill="#26c8ec"/>
    <rect x="28" y="52" width="8" height="8" fill="#00e5ff"/>
    <rect x="36" y="52" width="8" height="8" fill="#00e5ff"/>
  </g>
</svg>
